<svg xmlns="http://www.w3.org/2000/svg" viewBox="0 0 64 64" role="img" aria-label="Clear Care Dental">
  <defs>
    <radialGradient id="ccdSphere" cx="0.35" cy="0.35" r="0.75">
      <stop offset="0%" stop-color="#9BE3F2"/>
      <stop offset="55%" stop-color="#2BB1D6"/>
      <stop offset="100%" stop-color="#0E7AA0"/>
    </radialGradient>
  </defs>

  <!-- Red heart outline -->
  <path
    d="M32 56 C8 42 4 28 4 20 C4 12 10 6 17 6 C23 6 28 10 32 16 C36 10 41 6 47 6 C54 6 60 12 60 20 C60 28 56 42 32 56 Z"
    fill="none" stroke="#E53935" stroke-width="3" stroke-linejoin="round"/>

  <!-- EKG / heartbeat line across the heart -->
  <path
    d="M2 32 L14 32 L18 24 L22 40 L26 32 L38 32 L42 26 L46 38 L50 32 L62 32"
    fill="none" stroke="#E53935" stroke-width="2.4" stroke-linecap="round" stroke-linejoin="round"/>

  <!-- Cyan sphere inside the heart -->
  <circle cx="32" cy="32" r="13" fill="url(#ccdSphere)"/>

  <!-- White tooth glyph -->
  <path
    d="M27 25 C25 25 24 27 24 29 C24 32 24.5 34 25 36 C25.5 38 26 40 27 40 C27.7 40 28 39.2 28.2 38 L28.7 34 C28.8 33.2 29.2 32.7 30 32.7 C30.8 32.7 31.2 33.2 31.3 34 L31.8 38 C32 39.2 32.3 40 33 40 C34 40 34.5 38 35 36 C35.5 34 36 32 36 29 C36 27 35 25 33 25 C32 25 31.2 25.4 30 25.4 C28.8 25.4 28 25 27 25 Z"
    fill="#fff"/>

  <!-- Small sparkle on the tooth -->
  <path d="M37 23 L37.6 24.6 L39.2 25.2 L37.6 25.8 L37 27.4 L36.4 25.8 L34.8 25.2 L36.4 24.6 Z" fill="#fff"/>
</svg>
